<?xml version="1.0" standalone="no"?>
<!DOCTYPE svg PUBLIC "-//W3C//DTD SVG 20010904//EN"
 "http://www.w3.org/TR/2001/REC-SVG-20010904/DTD/svg10.dtd">
<svg version="1.0" xmlns="http://www.w3.org/2000/svg"
 width="9836.000000pt" height="9800.000000pt" viewBox="0 0 9836.000000 9800.000000"
 preserveAspectRatio="xMidYMid meet">

<g transform="translate(0.000000,9800.000000) scale(0.100000,-0.100000)"
fill="#000000" stroke="none">
<path d="M90250 58805 l0 -195 305 0 305 0 0 -945 0 -945 230 0 230 0 0 945 0
945 300 0 300 0 0 195 0 195 -835 0 -835 0 0 -195z"/>
<path d="M92300 57860 l0 -1140 230 0 230 0 0 845 0 845 24 0 c21 0 27 -8 38
-47 8 -27 115 -393 239 -816 l224 -767 219 2 219 3 237 810 c214 733 239 810
258 813 l22 3 0 -845 0 -846 235 0 235 0 0 1140 0 1140 -378 0 -379 0 -223
-755 c-123 -415 -225 -753 -228 -751 -2 3 -106 341 -231 753 l-226 748 -373 3
-372 2 0 -1140z"/>
<path d="M31610 50725 l0 -1105 1738 -2 1737 -3 3 -5347 2 -5348 1305 0 1305
0 0 5350 0 5350 1680 0 1680 0 0 1105 0 1105 -4725 0 -4725 0 0 -1105z"/>
<path d="M42086 45392 c-902 -3540 -1642 -6445 -1644 -6454 -4 -17 62 -18
1290 -18 l1295 0 67 258 c37 141 190 727 340 1302 l273 1045 2253 3 c1240 1
2257 -1 2261 -5 6 -7 719 -2583 719 -2598 0 -3 587 -5 1305 -5 718 0 1305 3
1305 8 -1 4 -736 2907 -1634 6452 l-1633 6445 -2279 2 -2279 3 -1639 -6438z
m5030 1288 c398 -1664 724 -3031 724 -3037 0 -10 -378 -13 -1856 -13 l-1856 0
6 34 c8 40 1454 6015 1461 6034 3 10 89 12 401 10 l397 -3 723 -3025z"/>
<path d="M52950 45375 l0 -6455 1305 0 1305 0 0 2165 0 2165 1342 -2 1343 -3
850 -2162 850 -2163 1368 0 c1299 0 1369 1 1364 18 -2 9 -455 1112 -1006 2449
-550 1338 -1001 2436 -1001 2440 0 5 61 39 136 76 703 350 1195 878 1508 1614
275 647 402 1463 367 2364 -21 543 -68 916 -166 1314 -76 309 -151 517 -280
780 -300 611 -788 1082 -1416 1366 -597 271 -1380 432 -2314 479 -133 6 -1180
10 -2882 10 l-2673 0 0 -6455z m5412 4300 c986 -104 1505 -631 1635 -1656 21
-168 24 -669 5 -834 -30 -257 -84 -505 -152 -700 -197 -558 -609 -917 -1197
-1041 -254 -54 -259 -54 -1730 -54 l-1363 0 0 2150 0 2150 1333 0 c1095 0
1356 -3 1469 -15z"/>
<path d="M64570 45375 l0 -6455 1305 0 1305 0 0 2315 0 2315 2345 0 2345 0 0
1095 0 1095 -2345 0 -2345 0 0 1950 0 1950 2865 0 2865 0 0 1095 0 1095 -4170
0 -4170 0 0 -6455z"/>
<path d="M74106 45392 c-902 -3540 -1642 -6445 -1644 -6454 -4 -17 62 -18
1290 -18 l1295 0 67 258 c37 141 190 727 340 1302 l273 1045 2253 3 c1240 1
2257 -1 2261 -5 6 -7 719 -2583 719 -2598 0 -3 587 -5 1305 -5 718 0 1305 3
1305 8 -1 4 -736 2907 -1634 6452 l-1633 6445 -2279 2 -2279 3 -1639 -6438z
m5030 1288 c398 -1664 724 -3031 724 -3037 0 -10 -378 -13 -1856 -13 l-1856 0
6 34 c8 40 1454 6015 1461 6034 3 10 89 12 401 10 l397 -3 723 -3025z"/>
<path d="M84970 45375 l0 -6455 1305 0 1305 0 0 2559 0 2559 123 6 c257 12
1522 36 1525 29 1 -5 604 -1164 1340 -2578 l1337 -2570 1398 -3 c768 -1 1397
1 1397 4 0 4 -729 1469 -1620 3257 -891 1787 -1620 3254 -1620 3259 0 8 2944
6197 3016 6341 l24 47 -1362 0 -1363 0 -1285 -2703 -1285 -2702 -690 -17
c-380 -9 -745 -17 -812 -17 l-123 -1 0 2720 0 2720 -1305 0 -1305 0 0 -6455z"/>
</g>
</svg>
