<?xml version="1.0" standalone="no"?>
<!DOCTYPE svg PUBLIC "-//W3C//DTD SVG 20010904//EN"
 "http://www.w3.org/TR/2001/REC-SVG-20010904/DTD/svg10.dtd">
<svg version="1.0" xmlns="http://www.w3.org/2000/svg"
 width="9836.000000pt" height="9800.000000pt" viewBox="0 0 9836.000000 9800.000000"
 preserveAspectRatio="xMidYMid meet">

<g transform="translate(0.000000,9800.000000) scale(0.100000,-0.100000)"
fill="#000000" stroke="none">
<path d="M85270 59004 c-190 -16 -384 -49 -507 -85 l-72 -22 -20 -86 c-68
-287 -95 -549 -96 -911 0 -288 5 -357 41 -612 l15 -106 -51 -48 c-147 -138
-248 -338 -285 -568 -17 -105 -19 -331 -5 -461 12 -103 78 -541 86 -567 5 -17
27 -18 280 -18 151 0 274 2 274 4 0 2 -13 95 -29 207 -64 444 -76 648 -46 806
29 154 108 269 222 324 96 47 126 48 846 49 l678 0 -4 618 c-3 418 -8 641 -16
690 -39 237 -109 390 -238 519 -130 130 -324 216 -565 253 -75 11 -427 21
-508 14z m481 -511 c171 -50 238 -134 274 -339 11 -66 15 -168 15 -419 l0
-333 -437 -4 c-241 -2 -439 -3 -440 -3 -1 0 -7 56 -15 125 -19 180 -16 617 6
805 9 83 19 158 22 167 7 23 52 26 304 23 169 -2 217 -6 271 -22z"/>
<path d="M88030 59004 c-84 -11 -201 -39 -280 -66 -387 -135 -672 -477 -730
-876 -19 -129 -8 -345 23 -464 27 -100 86 -238 137 -319 17 -25 30 -48 30 -51
0 -3 -19 -18 -42 -33 -147 -97 -264 -244 -319 -401 -69 -198 -66 -458 7 -653
56 -149 176 -295 321 -390 234 -154 580 -219 969 -180 98 9 453 65 460 71 3 3
-75 441 -80 445 -1 1 -88 -7 -192 -18 -248 -28 -549 -31 -647 -6 -233 59 -337
202 -325 447 4 81 10 108 35 161 52 110 141 178 285 216 54 14 136 17 561 20
l497 4 -2 242 -3 242 -492 0 -492 0 -41 55 c-98 130 -143 271 -143 445 -1 231
87 409 258 524 118 78 187 96 370 95 129 -1 163 -5 240 -27 50 -14 91 -24 93
-22 3 3 162 444 162 450 0 7 -115 37 -230 62 -112 23 -344 38 -430 27z"/>
<path d="M58735 52178 c-3 -7 -4 -515 -3 -1128 l3 -1115 1325 0 1325 0 0 1125
0 1125 -1323 3 c-1053 2 -1324 0 -1327 -10z"/>
<path d="M48450 46325 l0 -5845 -2667 0 c-1487 0 -2819 5 -3010 10 -759 22
-1336 86 -1768 197 -1251 321 -1825 1094 -1825 2458 0 565 78 1152 310 2330
55 281 100 517 100 526 0 9 -10 19 -22 22 -38 10 -2525 487 -2536 487 -5 0
-14 -24 -20 -52 -6 -29 -45 -213 -86 -408 -216 -1022 -323 -1699 -378 -2405
-16 -213 -16 -868 0 -1055 62 -688 201 -1224 451 -1735 312 -637 799 -1178
1428 -1589 708 -461 1601 -775 2678 -940 346 -53 575 -77 1130 -118 122 -9
2778 -13 11088 -15 l10927 -3 0 4960 0 4961 -2517 -4 c-2730 -3 -2569 0 -3013
-57 -1340 -171 -2323 -693 -2963 -1573 -486 -668 -772 -1568 -857 -2697 -6
-80 -13 -296 -17 -480 -19 -1073 130 -2001 430 -2692 26 -59 47 -112 47 -117
0 -8 -641 -11 -2130 -11 l-2130 0 0 5845 0 5845 -1325 0 -1325 0 0 -5845z
m13150 -3175 l0 -2670 -932 0 c-513 0 -1036 5 -1161 10 -367 16 -627 50 -872
115 -276 72 -428 150 -584 299 -295 283 -432 697 -498 1507 -21 272 -25 1118
-5 1364 55 682 162 1099 360 1400 58 87 194 230 281 294 252 187 672 305 1211
340 69 4 592 9 1163 10 l1037 1 0 -2670z"/>
<path d="M75910 46325 l0 -5845 -4190 0 -4190 0 0 3815 0 3815 -1325 0 -1325
0 0 -5207 c0 -3490 -3 -5254 -10 -5348 -53 -706 -270 -1241 -650 -1599 -243
-227 -522 -351 -878 -387 -126 -13 -280 -8 -806 27 -208 14 -380 24 -381 22
-1 -2 -23 -489 -49 -1083 -25 -594 -47 -1100 -48 -1125 l-2 -45 152 -17 c320
-35 558 -50 882 -55 433 -7 690 11 1030 73 1623 296 2837 1481 3255 3178 107
433 155 860 155 1384 l0 262 10605 0 10606 0 -4 2488 c-3 2232 -5 2505 -20
2667 -101 1081 -335 1902 -738 2590 -329 563 -727 1007 -1205 1347 -665 472
-1328 709 -2244 804 -209 21 -856 30 -1100 15 -1158 -72 -2087 -401 -3015
-1069 -527 -380 -1223 -1064 -1764 -1735 l-111 -139 0 3506 0 3506 -1315 0
-1315 0 0 -5845z m7965 -515 c889 -75 1487 -438 1849 -1120 194 -367 303 -782
363 -1380 14 -142 17 -353 20 -1497 l4 -1333 -3785 0 -3786 0 0 1008 0 1009
152 184 c401 488 702 824 1038 1160 709 709 1315 1167 2000 1514 417 210 754
328 1140 399 131 24 357 52 470 59 132 8 425 6 535 -3z"/>
<path d="M44090 49755 c-785 -86 -1458 -493 -1880 -1137 -175 -266 -286 -557
-337 -879 -33 -213 -21 -607 23 -786 l6 -23 -243 -2 -244 -3 0 -720 0 -720
2393 -3 2392 -2 0 725 0 725 -1299 0 -1298 0 -31 78 c-81 206 -101 431 -57
640 75 360 339 599 730 663 44 7 156 13 250 13 261 -1 439 -36 607 -120 l68
-34 14 22 c8 13 159 284 336 602 l323 579 -24 19 c-67 55 -262 154 -409 208
-191 70 -501 136 -750 159 -149 14 -424 12 -570 -4z"/>
</g>
</svg>
